# xmcd
#
# Track frame offsets:
#	150
#	14215
#	28295
#	41205
#	52467
#	66597
#	81547
#	93275
#	107950
#	122692
#	135542
#	154732
#	170032
#	187015
#	199945
#
# Disc length: 2806 seconds
#
# Revision: 1
# Processed by: cddbd v1.5PL3 Copyright (c) Steve Scherf et al.
# Submitted via: CDex 1.50Beta5
#
DISCID=f10af40f
DTITLE=Various Artist - 詩の贈りもの DISC2
DYEAR=1900
DGENRE=Pop
TTITLE0=或る日突然
TTITLE1=悲しくてやりきれない
TTITLE2=水虫の唄
TTITLE3=空よ
TTITLE4=青年は荒野をめざす
TTITLE5=さすらい人の子守歌
TTITLE6=さよならは云わないで
TTITLE7=今日も夢みる
TTITLE8=海の底でうたう唄
TTITLE9=想い出の赤いヤッケ
TTITLE10=時計をとめて
TTITLE11=白いブランコ
TTITLE12=知床旅情
TTITLE13=四季の歌
TTITLE14=家をつくるなら
EXTD=
EXTT0=
EXTT1=
EXTT2=
EXTT3=
EXTT4=
EXTT5=
EXTT6=
EXTT7=
EXTT8=
EXTT9=
EXTT10=
EXTT11=
EXTT12=
EXTT13=
EXTT14=
PLAYORDER=
